<svg width="310" height="57" viewBox="0 0 310 57" fill="none" xmlns="http://www.w3.org/2000/svg">
<rect width="310" height="57" rx="28.5" fill="#00A1FF"/>
<path d="M51.5966 34L48.3125 22.3636H50.5795L52.6761 30.9148H52.7841L55.0227 22.3636H57.0852L59.3295 30.9205H59.4318L61.5284 22.3636H63.7955L60.5114 34H58.4318L56.1023 25.8352H56.0114L53.6761 34H51.5966ZM65.1662 34V25.2727H67.223V34H65.1662ZM66.2003 24.0341C65.8745 24.0341 65.5942 23.9261 65.3594 23.7102C65.1245 23.4905 65.0071 23.2273 65.0071 22.9205C65.0071 22.6098 65.1245 22.3466 65.3594 22.1307C65.5942 21.911 65.8745 21.8011 66.2003 21.8011C66.5298 21.8011 66.8101 21.911 67.0412 22.1307C67.276 22.3466 67.3935 22.6098 67.3935 22.9205C67.3935 23.2273 67.276 23.4905 67.0412 23.7102C66.8101 23.9261 66.5298 24.0341 66.2003 24.0341ZM71.3949 28.8864V34H69.3381V25.2727H71.304V26.7557H71.4062C71.607 26.267 71.9271 25.8788 72.3665 25.5909C72.8097 25.303 73.357 25.1591 74.0085 25.1591C74.6108 25.1591 75.1354 25.2879 75.5824 25.5455C76.0331 25.803 76.3816 26.1761 76.6278 26.6648C76.8778 27.1534 77.0009 27.7462 76.9972 28.4432V34H74.9403V28.7614C74.9403 28.178 74.7888 27.7216 74.4858 27.392C74.1866 27.0625 73.7718 26.8977 73.2415 26.8977C72.8816 26.8977 72.5616 26.9773 72.2812 27.1364C72.0047 27.2917 71.7869 27.517 71.6278 27.8125C71.4725 28.108 71.3949 28.4659 71.3949 28.8864ZM82.3267 34.1534C81.6411 34.1534 81.0275 33.9773 80.4858 33.625C79.9441 33.2727 79.5161 32.7614 79.2017 32.0909C78.8873 31.4205 78.7301 30.6061 78.7301 29.6477C78.7301 28.678 78.8892 27.8598 79.2074 27.1932C79.5294 26.5227 79.9631 26.017 80.5085 25.6761C81.054 25.3314 81.6619 25.1591 82.3324 25.1591C82.8438 25.1591 83.2642 25.2462 83.5938 25.4205C83.9233 25.5909 84.1847 25.7973 84.3778 26.0398C84.571 26.2784 84.7206 26.5038 84.8267 26.7159H84.9119V22.3636H86.9744V34H84.9517V32.625H84.8267C84.7206 32.8371 84.5672 33.0625 84.3665 33.3011C84.1657 33.536 83.9006 33.7367 83.571 33.9034C83.2415 34.0701 82.8267 34.1534 82.3267 34.1534ZM82.9006 32.4659C83.3362 32.4659 83.7074 32.3485 84.0142 32.1136C84.321 31.875 84.554 31.5436 84.7131 31.1193C84.8722 30.6951 84.9517 30.2008 84.9517 29.6364C84.9517 29.072 84.8722 28.5814 84.7131 28.1648C84.5578 27.7481 84.3267 27.4242 84.0199 27.1932C83.7169 26.9621 83.3438 26.8466 82.9006 26.8466C82.4422 26.8466 82.0597 26.9659 81.7528 27.2045C81.446 27.4432 81.215 27.7727 81.0597 28.1932C80.9044 28.6136 80.8267 29.0947 80.8267 29.6364C80.8267 30.1818 80.9044 30.6686 81.0597 31.0966C81.2188 31.5208 81.4517 31.8561 81.7585 32.1023C82.0691 32.3447 82.4498 32.4659 82.9006 32.4659ZM92.973 34.1705C92.1207 34.1705 91.3821 33.983 90.7571 33.608C90.1321 33.233 89.6473 32.7083 89.3026 32.0341C88.9616 31.3598 88.7912 30.572 88.7912 29.6705C88.7912 28.7689 88.9616 27.9792 89.3026 27.3011C89.6473 26.6231 90.1321 26.0966 90.7571 25.7216C91.3821 25.3466 92.1207 25.1591 92.973 25.1591C93.8253 25.1591 94.5639 25.3466 95.1889 25.7216C95.8139 26.0966 96.2969 26.6231 96.6378 27.3011C96.9825 27.9792 97.1548 28.7689 97.1548 29.6705C97.1548 30.572 96.9825 31.3598 96.6378 32.0341C96.2969 32.7083 95.8139 33.233 95.1889 33.608C94.5639 33.983 93.8253 34.1705 92.973 34.1705ZM92.9844 32.5227C93.4465 32.5227 93.8329 32.3958 94.1435 32.142C94.4541 31.8845 94.6851 31.5398 94.8366 31.108C94.992 30.6761 95.0696 30.1951 95.0696 29.6648C95.0696 29.1307 94.992 28.6477 94.8366 28.2159C94.6851 27.7803 94.4541 27.4337 94.1435 27.1761C93.8329 26.9186 93.4465 26.7898 92.9844 26.7898C92.5109 26.7898 92.117 26.9186 91.8026 27.1761C91.492 27.4337 91.259 27.7803 91.1037 28.2159C90.9522 28.6477 90.8764 29.1307 90.8764 29.6648C90.8764 30.1951 90.9522 30.6761 91.1037 31.108C91.259 31.5398 91.492 31.8845 91.8026 32.142C92.117 32.3958 92.5109 32.5227 92.9844 32.5227ZM100.452 34L97.9858 25.2727H100.082L101.616 31.4091H101.696L103.264 25.2727H105.338L106.906 31.375H106.991L108.503 25.2727H110.605L108.134 34H105.991L104.355 28.1023H104.236L102.599 34H100.452ZM118.939 27.5795L117.064 27.7841C117.011 27.5947 116.918 27.4167 116.786 27.25C116.657 27.0833 116.482 26.9489 116.263 26.8466C116.043 26.7443 115.774 26.6932 115.456 26.6932C115.028 26.6932 114.668 26.786 114.376 26.9716C114.089 27.1572 113.946 27.3977 113.95 27.6932C113.946 27.947 114.039 28.1534 114.229 28.3125C114.422 28.4716 114.74 28.6023 115.183 28.7045L116.672 29.0227C117.498 29.2008 118.111 29.483 118.513 29.8693C118.918 30.2557 119.123 30.7614 119.126 31.3864C119.123 31.9356 118.962 32.4205 118.643 32.8409C118.329 33.2576 117.892 33.5833 117.331 33.8182C116.77 34.053 116.126 34.1705 115.399 34.1705C114.331 34.1705 113.471 33.947 112.82 33.5C112.168 33.0492 111.78 32.4223 111.655 31.6193L113.661 31.4261C113.751 31.8201 113.945 32.1174 114.24 32.3182C114.536 32.5189 114.92 32.6193 115.393 32.6193C115.882 32.6193 116.274 32.5189 116.57 32.3182C116.869 32.1174 117.018 31.8693 117.018 31.5739C117.018 31.3239 116.922 31.1174 116.729 30.9545C116.539 30.7917 116.244 30.6667 115.842 30.5795L114.354 30.267C113.517 30.0928 112.897 29.7992 112.496 29.3864C112.094 28.9697 111.895 28.4432 111.899 27.8068C111.895 27.2689 112.041 26.803 112.337 26.4091C112.636 26.0114 113.051 25.7045 113.581 25.4886C114.115 25.2689 114.731 25.1591 115.428 25.1591C116.45 25.1591 117.255 25.3769 117.842 25.8125C118.433 26.2481 118.799 26.8371 118.939 27.5795ZM132.246 21.088H138.854V22.832H132.246V21.088ZM125.926 24.64H130.854V26.32H125.926V24.64ZM132.31 25.2H137.606V26.944H132.31V25.2ZM128.022 20.4H129.75V25.616H128.022V20.4ZM131.382 21.088H133.158V25.776C133.158 26.4693 133.137 27.232 133.094 28.064C133.062 28.8853 132.993 29.7333 132.886 30.608C132.78 31.4827 132.62 32.3307 132.406 33.152C132.193 33.9733 131.916 34.72 131.574 35.392C131.457 35.2853 131.302 35.168 131.11 35.04C130.918 34.9227 130.721 34.8107 130.518 34.704C130.316 34.5973 130.14 34.5173 129.99 34.464C130.31 33.8347 130.566 33.152 130.758 32.416C130.95 31.68 131.089 30.9227 131.174 30.144C131.27 29.3547 131.329 28.592 131.35 27.856C131.372 27.1093 131.382 26.416 131.382 25.776V21.088ZM126.006 28.112H130.054V35.392H128.31V29.792H126.006V28.112ZM125.174 20.832H126.87V27.008C126.87 27.712 126.854 28.4427 126.822 29.2C126.79 29.9573 126.716 30.7147 126.598 31.472C126.492 32.2187 126.337 32.9333 126.134 33.616C125.932 34.2987 125.649 34.912 125.286 35.456C125.19 35.3387 125.062 35.2053 124.902 35.056C124.753 34.9067 124.598 34.7627 124.438 34.624C124.278 34.4853 124.129 34.3733 123.99 34.288C124.257 33.808 124.465 33.2693 124.614 32.672C124.774 32.064 124.892 31.4347 124.966 30.784C125.052 30.1333 125.105 29.4827 125.126 28.832C125.158 28.1813 125.174 27.568 125.174 26.992V20.832ZM137.046 25.2H137.366L137.686 25.152L138.886 25.52C138.662 27.12 138.31 28.5547 137.83 29.824C137.35 31.0827 136.748 32.176 136.022 33.104C135.297 34.032 134.454 34.8 133.494 35.408C133.42 35.248 133.313 35.0667 133.174 34.864C133.036 34.672 132.886 34.4853 132.726 34.304C132.577 34.1227 132.428 33.9733 132.278 33.856C133.121 33.3867 133.868 32.7467 134.518 31.936C135.169 31.1147 135.708 30.1653 136.134 29.088C136.572 28 136.876 26.8267 137.046 25.568V25.2ZM134.31 26.368C134.577 27.4667 134.94 28.5067 135.398 29.488C135.868 30.4587 136.438 31.3227 137.11 32.08C137.793 32.8373 138.582 33.44 139.478 33.888C139.34 34.0053 139.185 34.1547 139.014 34.336C138.844 34.5173 138.684 34.7093 138.534 34.912C138.385 35.1147 138.262 35.296 138.166 35.456C137.217 34.9013 136.39 34.192 135.686 33.328C134.993 32.464 134.406 31.4773 133.926 30.368C133.457 29.248 133.062 28.032 132.742 26.72L134.31 26.368ZM144.851 22.3636H147.43L150.885 30.7955H151.021L154.476 22.3636H157.055V34H155.033V26.0057H154.925L151.709 33.9659H150.197L146.982 25.9886H146.874V34H144.851V22.3636ZM158.839 24.1307V22.3636H168.124V24.1307H164.527V34H162.436V24.1307H158.839ZM173.845 34.1591C173.088 34.1591 172.41 34.017 171.811 33.733C171.213 33.4451 170.737 33.0511 170.385 32.5511C170.036 32.0511 169.851 31.4792 169.828 30.8352H171.874C171.911 31.3125 172.118 31.7027 172.493 32.0057C172.868 32.3049 173.319 32.4545 173.845 32.4545C174.258 32.4545 174.625 32.3598 174.947 32.1705C175.269 31.9811 175.523 31.7178 175.709 31.3807C175.894 31.0436 175.985 30.6591 175.982 30.2273C175.985 29.7879 175.893 29.3977 175.703 29.0568C175.514 28.7159 175.254 28.4489 174.925 28.2557C174.595 28.0587 174.216 27.9602 173.788 27.9602C173.44 27.9564 173.097 28.0208 172.76 28.1534C172.423 28.286 172.156 28.4602 171.959 28.6761L170.055 28.3636L170.663 22.3636H177.413V24.125H172.408L172.072 27.2102H172.141C172.357 26.9564 172.661 26.7462 173.055 26.5795C173.449 26.4091 173.881 26.3239 174.351 26.3239C175.055 26.3239 175.684 26.4905 176.237 26.8239C176.79 27.1534 177.226 27.608 177.544 28.1875C177.862 28.767 178.021 29.4299 178.021 30.1761C178.021 30.9451 177.843 31.6307 177.487 32.233C177.135 32.8314 176.644 33.303 176.016 33.6477C175.391 33.9886 174.667 34.1591 173.845 34.1591ZM186.667 21.168C186.613 21.456 186.528 21.8293 186.411 22.288C186.293 22.7467 186.123 23.264 185.899 23.84C185.728 24.2347 185.531 24.6453 185.307 25.072C185.093 25.488 184.875 25.8613 184.651 26.192C184.789 26.128 184.965 26.0747 185.179 26.032C185.392 25.9787 185.611 25.9413 185.835 25.92C186.069 25.888 186.277 25.872 186.459 25.872C187.131 25.872 187.685 26.064 188.123 26.448C188.571 26.832 188.795 27.4027 188.795 28.16C188.795 28.3733 188.795 28.6347 188.795 28.944C188.805 29.2533 188.816 29.5787 188.827 29.92C188.837 30.2507 188.848 30.576 188.859 30.896C188.869 31.216 188.875 31.504 188.875 31.76H186.955C186.976 31.5787 186.987 31.3653 186.987 31.12C186.997 30.864 187.003 30.5973 187.003 30.32C187.013 30.0427 187.019 29.776 187.019 29.52C187.029 29.2533 187.035 29.0133 187.035 28.8C187.035 28.288 186.896 27.936 186.619 27.744C186.352 27.5413 186.053 27.44 185.723 27.44C185.275 27.44 184.821 27.552 184.363 27.776C183.915 27.9893 183.536 28.2453 183.227 28.544C182.992 28.7787 182.752 29.04 182.507 29.328C182.272 29.616 182.016 29.9413 181.739 30.304L180.027 29.024C180.72 28.384 181.317 27.7653 181.819 27.168C182.331 26.5707 182.763 25.9787 183.115 25.392C183.467 24.8053 183.755 24.2187 183.979 23.632C184.139 23.2053 184.267 22.7627 184.363 22.304C184.469 21.8347 184.533 21.3973 184.555 20.992L186.667 21.168ZM180.651 22.64C181.056 22.704 181.525 22.752 182.059 22.784C182.592 22.816 183.061 22.832 183.467 22.832C184.171 22.832 184.939 22.816 185.771 22.784C186.613 22.752 187.467 22.6987 188.331 22.624C189.195 22.5387 190.016 22.432 190.795 22.304L190.779 24.16C190.213 24.2347 189.6 24.304 188.939 24.368C188.288 24.4213 187.621 24.4693 186.939 24.512C186.267 24.544 185.621 24.5707 185.003 24.592C184.384 24.6027 183.835 24.608 183.355 24.608C183.141 24.608 182.875 24.608 182.555 24.608C182.245 24.5973 181.925 24.5867 181.595 24.576C181.264 24.5547 180.949 24.5333 180.651 24.512V22.64ZM193.323 27.184C193.152 27.2373 192.949 27.3067 192.715 27.392C192.491 27.4667 192.261 27.5467 192.027 27.632C191.803 27.7067 191.6 27.7813 191.419 27.856C190.907 28.0587 190.299 28.304 189.595 28.592C188.901 28.88 188.176 29.216 187.419 29.6C186.939 29.856 186.533 30.1067 186.203 30.352C185.872 30.5973 185.621 30.848 185.451 31.104C185.28 31.3493 185.195 31.6213 185.195 31.92C185.195 32.144 185.243 32.3307 185.339 32.48C185.435 32.6187 185.579 32.7307 185.771 32.816C185.963 32.9013 186.203 32.96 186.491 32.992C186.779 33.024 187.12 33.04 187.515 33.04C188.197 33.04 188.949 33.0027 189.771 32.928C190.592 32.8427 191.355 32.7307 192.059 32.592L191.995 34.656C191.653 34.6987 191.221 34.7413 190.699 34.784C190.176 34.8373 189.632 34.8747 189.067 34.896C188.512 34.9173 187.979 34.928 187.467 34.928C186.635 34.928 185.888 34.848 185.227 34.688C184.565 34.528 184.043 34.256 183.659 33.872C183.285 33.4773 183.099 32.9387 183.099 32.256C183.099 31.7013 183.221 31.2 183.467 30.752C183.723 30.304 184.059 29.8987 184.475 29.536C184.891 29.1733 185.344 28.848 185.835 28.56C186.336 28.2613 186.827 27.9893 187.307 27.744C187.797 27.488 188.24 27.2693 188.635 27.088C189.029 26.9067 189.397 26.7467 189.739 26.608C190.091 26.4587 190.427 26.3093 190.747 26.16C191.056 26.0213 191.355 25.888 191.643 25.76C191.931 25.6213 192.224 25.4773 192.523 25.328L193.323 27.184ZM207.355 20.864C207.493 21.0453 207.637 21.2747 207.787 21.552C207.947 21.8187 208.101 22.0853 208.251 22.352C208.4 22.6187 208.523 22.8533 208.619 23.056L207.339 23.6C207.179 23.2693 206.981 22.896 206.747 22.48C206.523 22.0533 206.304 21.6853 206.091 21.376L207.355 20.864ZM209.243 20.128C209.381 20.3307 209.531 20.5707 209.691 20.848C209.861 21.1147 210.021 21.3813 210.171 21.648C210.331 21.904 210.453 22.1227 210.539 22.304L209.275 22.864C209.104 22.5227 208.901 22.144 208.667 21.728C208.432 21.312 208.203 20.9547 207.979 20.656L209.243 20.128ZM201.371 26.88C201.861 27.168 202.4 27.504 202.987 27.888C203.573 28.2613 204.16 28.6507 204.747 29.056C205.344 29.4613 205.904 29.856 206.427 30.24C206.96 30.6133 207.413 30.9547 207.787 31.264L206.251 33.072C205.899 32.7413 205.461 32.368 204.939 31.952C204.427 31.536 203.872 31.1093 203.275 30.672C202.677 30.224 202.091 29.7973 201.515 29.392C200.939 28.9867 200.416 28.6347 199.947 28.336L201.371 26.88ZM208.891 24.16C208.805 24.3093 208.715 24.4907 208.619 24.704C208.523 24.9067 208.437 25.1093 208.363 25.312C208.203 25.8027 207.984 26.3467 207.707 26.944C207.44 27.5413 207.12 28.1547 206.747 28.784C206.373 29.4133 205.947 30.0267 205.467 30.624C204.72 31.552 203.813 32.4427 202.747 33.296C201.68 34.1387 200.384 34.8533 198.859 35.44L197.003 33.824C198.112 33.472 199.077 33.0667 199.899 32.608C200.72 32.1387 201.435 31.6373 202.043 31.104C202.651 30.5707 203.179 30.0373 203.627 29.504C203.989 29.0773 204.331 28.608 204.651 28.096C204.971 27.5733 205.248 27.056 205.483 26.544C205.728 26.032 205.899 25.5733 205.995 25.168H200.587L201.323 23.344H205.883C206.128 23.344 206.373 23.328 206.619 23.296C206.875 23.264 207.093 23.216 207.275 23.152L208.891 24.16ZM203.611 21.712C203.419 21.9893 203.227 22.288 203.035 22.608C202.853 22.928 202.715 23.1733 202.619 23.344C202.267 23.9733 201.808 24.6507 201.243 25.376C200.688 26.1013 200.064 26.8053 199.371 27.488C198.688 28.1707 197.963 28.7787 197.195 29.312L195.467 27.968C196.405 27.392 197.2 26.784 197.851 26.144C198.512 25.4933 199.061 24.8693 199.499 24.272C199.947 23.664 200.304 23.1253 200.571 22.656C200.699 22.464 200.832 22.208 200.971 21.888C201.12 21.5573 201.227 21.2587 201.291 20.992L203.611 21.712ZM220.043 20.928C220.011 21.2693 219.984 21.5467 219.963 21.76C219.941 21.9627 219.931 22.176 219.931 22.4C219.931 22.5387 219.931 22.752 219.931 23.04C219.931 23.328 219.931 23.6267 219.931 23.936C219.931 24.2453 219.931 24.5013 219.931 24.704H217.707C217.707 24.48 217.707 24.2133 217.707 23.904C217.707 23.5947 217.707 23.3013 217.707 23.024C217.707 22.7467 217.707 22.5387 217.707 22.4C217.707 22.176 217.696 21.9627 217.675 21.76C217.664 21.5467 217.632 21.2693 217.579 20.928H220.043ZM225.435 24.304C225.371 24.4747 225.307 24.6933 225.243 24.96C225.189 25.216 225.147 25.424 225.115 25.584C225.051 25.9573 224.971 26.336 224.875 26.72C224.789 27.104 224.683 27.488 224.555 27.872C224.437 28.256 224.299 28.6347 224.139 29.008C223.989 29.3813 223.819 29.7493 223.627 30.112C223.2 30.8907 222.656 31.6 221.995 32.24C221.344 32.88 220.603 33.424 219.771 33.872C218.939 34.3093 218.048 34.656 217.099 34.912L215.435 32.992C215.797 32.928 216.181 32.8427 216.587 32.736C216.992 32.6187 217.36 32.496 217.691 32.368C218.139 32.1973 218.581 31.984 219.019 31.728C219.467 31.4613 219.888 31.152 220.283 30.8C220.677 30.448 221.024 30.0587 221.323 29.632C221.589 29.2373 221.819 28.816 222.011 28.368C222.203 27.9093 222.357 27.44 222.475 26.96C222.592 26.4693 222.683 25.9893 222.747 25.52H214.811C214.811 25.6587 214.811 25.8347 214.811 26.048C214.811 26.2507 214.811 26.4747 214.811 26.72C214.811 26.9547 214.811 27.1733 214.811 27.376C214.811 27.568 214.811 27.728 214.811 27.856C214.811 28.0373 214.816 28.24 214.827 28.464C214.837 28.688 214.848 28.88 214.859 29.04H212.651C212.672 28.8373 212.688 28.6187 212.699 28.384C212.72 28.1387 212.731 27.9093 212.731 27.696C212.731 27.568 212.731 27.3813 212.731 27.136C212.731 26.8907 212.731 26.6293 212.731 26.352C212.731 26.064 212.731 25.792 212.731 25.536C212.731 25.28 212.731 25.0773 212.731 24.928C212.731 24.7467 212.725 24.5227 212.715 24.256C212.704 23.9787 212.683 23.744 212.651 23.552C212.928 23.584 213.195 23.6053 213.451 23.616C213.707 23.6267 213.984 23.632 214.283 23.632H222.715C223.045 23.632 223.312 23.616 223.515 23.584C223.728 23.5413 223.904 23.4987 224.043 23.456L225.435 24.304ZM230.747 21.84C231.024 22.032 231.349 22.2667 231.723 22.544C232.096 22.8213 232.48 23.1253 232.875 23.456C233.28 23.776 233.659 24.0907 234.011 24.4C234.363 24.7093 234.651 24.9867 234.875 25.232L233.243 26.896C233.04 26.672 232.773 26.4053 232.443 26.096C232.112 25.7867 231.755 25.4667 231.371 25.136C230.987 24.8053 230.608 24.4907 230.235 24.192C229.861 23.8933 229.531 23.6427 229.243 23.44L230.747 21.84ZM228.747 32.496C229.579 32.3787 230.363 32.2133 231.099 32C231.835 31.7867 232.517 31.5413 233.147 31.264C233.776 30.9867 234.352 30.6987 234.875 30.4C235.781 29.856 236.613 29.2373 237.371 28.544C238.128 27.8507 238.789 27.1307 239.355 26.384C239.92 25.6267 240.368 24.8907 240.699 24.176L241.947 26.432C241.541 27.1467 241.04 27.8613 240.443 28.576C239.856 29.2907 239.189 29.9733 238.443 30.624C237.696 31.264 236.891 31.84 236.027 32.352C235.483 32.6827 234.896 32.9973 234.267 33.296C233.637 33.584 232.971 33.84 232.267 34.064C231.573 34.2987 230.848 34.48 230.091 34.608L228.747 32.496ZM244.907 22.656C245.237 22.6667 245.547 22.6773 245.835 22.688C246.133 22.688 246.389 22.688 246.603 22.688C246.773 22.688 247.035 22.688 247.387 22.688C247.749 22.688 248.171 22.688 248.651 22.688C249.131 22.688 249.643 22.688 250.187 22.688C250.731 22.688 251.275 22.688 251.819 22.688C252.373 22.688 252.891 22.688 253.371 22.688C253.851 22.688 254.267 22.688 254.619 22.688C254.981 22.688 255.243 22.688 255.403 22.688C255.605 22.688 255.845 22.688 256.123 22.688C256.411 22.6773 256.699 22.6667 256.987 22.656C256.976 22.9013 256.965 23.1627 256.955 23.44C256.955 23.7067 256.955 23.9627 256.955 24.208C256.955 24.3573 256.955 24.592 256.955 24.912C256.955 25.2213 256.955 25.5947 256.955 26.032C256.955 26.4587 256.955 26.9173 256.955 27.408C256.955 27.888 256.955 28.3733 256.955 28.864C256.955 29.3547 256.955 29.8187 256.955 30.256C256.955 30.6827 256.955 31.056 256.955 31.376C256.955 31.6853 256.955 31.9093 256.955 32.048C256.955 32.208 256.955 32.4107 256.955 32.656C256.965 32.8907 256.971 33.1307 256.971 33.376C256.971 33.6107 256.971 33.8187 256.971 34C256.981 34.1707 256.987 34.2613 256.987 34.272H254.779C254.779 34.2507 254.779 34.1227 254.779 33.888C254.789 33.6427 254.795 33.3547 254.795 33.024C254.805 32.6933 254.811 32.384 254.811 32.096C254.811 31.9573 254.811 31.7227 254.811 31.392C254.811 31.0613 254.811 30.672 254.811 30.224C254.811 29.776 254.811 29.3013 254.811 28.8C254.811 28.2987 254.811 27.808 254.811 27.328C254.811 26.848 254.811 26.4107 254.811 26.016C254.811 25.6213 254.811 25.3067 254.811 25.072C254.811 24.8373 254.811 24.72 254.811 24.72H247.083C247.083 24.72 247.083 24.8373 247.083 25.072C247.083 25.3067 247.083 25.6213 247.083 26.016C247.083 26.4 247.083 26.8373 247.083 27.328C247.083 27.808 247.083 28.2987 247.083 28.8C247.083 29.2907 247.083 29.7653 247.083 30.224C247.083 30.672 247.083 31.0613 247.083 31.392C247.083 31.7227 247.083 31.9573 247.083 32.096C247.083 32.288 247.083 32.5067 247.083 32.752C247.083 32.9867 247.083 33.216 247.083 33.44C247.093 33.664 247.099 33.8507 247.099 34C247.099 34.16 247.099 34.2507 247.099 34.272H244.891C244.891 34.2507 244.891 34.16 244.891 34C244.901 33.84 244.907 33.6427 244.907 33.408C244.917 33.1733 244.923 32.9333 244.923 32.688C244.933 32.4427 244.939 32.224 244.939 32.032C244.939 31.8933 244.939 31.6693 244.939 31.36C244.939 31.04 244.939 30.6613 244.939 30.224C244.939 29.7867 244.939 29.328 244.939 28.848C244.939 28.3573 244.939 27.8667 244.939 27.376C244.939 26.8853 244.939 26.4267 244.939 26C244.939 25.5627 244.939 25.1893 244.939 24.88C244.939 24.5707 244.939 24.3467 244.939 24.208C244.939 23.984 244.939 23.728 244.939 23.44C244.939 23.1413 244.928 22.88 244.907 22.656ZM255.611 31.36V33.408H245.995V31.36H255.611ZM260.363 26.592C260.555 26.6027 260.8 26.6187 261.099 26.64C261.397 26.6507 261.707 26.6613 262.027 26.672C262.357 26.6827 262.661 26.688 262.939 26.688C263.205 26.688 263.536 26.688 263.931 26.688C264.325 26.688 264.752 26.688 265.211 26.688C265.68 26.688 266.16 26.688 266.651 26.688C267.152 26.688 267.648 26.688 268.139 26.688C268.629 26.688 269.093 26.688 269.531 26.688C269.968 26.688 270.357 26.688 270.699 26.688C271.051 26.688 271.328 26.688 271.531 26.688C271.904 26.688 272.256 26.6773 272.587 26.656C272.917 26.624 273.189 26.6027 273.403 26.592V29.104C273.221 29.0933 272.949 29.0773 272.587 29.056C272.224 29.0347 271.872 29.024 271.531 29.024C271.328 29.024 271.051 29.024 270.699 29.024C270.347 29.024 269.952 29.024 269.515 29.024C269.077 29.024 268.613 29.024 268.123 29.024C267.643 29.024 267.152 29.024 266.651 29.024C266.149 29.024 265.664 29.024 265.195 29.024C264.736 29.024 264.309 29.024 263.915 29.024C263.531 29.024 263.205 29.024 262.939 29.024C262.48 29.024 262.011 29.0347 261.531 29.056C261.051 29.0667 260.661 29.0827 260.363 29.104V26.592ZM285.803 22.096C285.952 22.3093 286.117 22.56 286.299 22.848C286.48 23.136 286.651 23.424 286.811 23.712C286.981 24 287.131 24.2667 287.259 24.512L285.867 25.136C285.717 24.7947 285.568 24.4907 285.419 24.224C285.28 23.9573 285.136 23.7013 284.987 23.456C284.837 23.2 284.661 22.9333 284.459 22.656L285.803 22.096ZM287.899 21.216C288.059 21.4293 288.229 21.6747 288.411 21.952C288.603 22.2293 288.784 22.512 288.955 22.8C289.136 23.0773 289.285 23.3387 289.403 23.584L288.059 24.24C287.888 23.8987 287.723 23.6 287.563 23.344C287.413 23.0773 287.259 22.8267 287.099 22.592C286.949 22.3467 286.773 22.096 286.571 21.84L287.899 21.216ZM279.419 32.704C279.419 32.4907 279.419 32.1547 279.419 31.696C279.419 31.2267 279.419 30.688 279.419 30.08C279.419 29.4613 279.419 28.8213 279.419 28.16C279.419 27.488 279.419 26.8427 279.419 26.224C279.419 25.5947 279.419 25.04 279.419 24.56C279.419 24.08 279.419 23.728 279.419 23.504C279.419 23.216 279.403 22.8907 279.371 22.528C279.349 22.1653 279.312 21.8453 279.259 21.568H281.755C281.723 21.8453 281.691 22.1547 281.659 22.496C281.627 22.8373 281.611 23.1733 281.611 23.504C281.611 23.792 281.611 24.192 281.611 24.704C281.611 25.216 281.611 25.7867 281.611 26.416C281.611 27.0347 281.611 27.6693 281.611 28.32C281.611 28.9707 281.611 29.5947 281.611 30.192C281.611 30.7787 281.611 31.296 281.611 31.744C281.611 32.1813 281.611 32.5013 281.611 32.704C281.611 32.8427 281.616 33.0507 281.627 33.328C281.648 33.5947 281.669 33.872 281.691 34.16C281.723 34.448 281.749 34.704 281.771 34.928H279.259C279.312 34.6187 279.349 34.2507 279.371 33.824C279.403 33.3867 279.419 33.0133 279.419 32.704ZM281.147 25.712C281.68 25.8507 282.272 26.032 282.923 26.256C283.584 26.4693 284.251 26.704 284.923 26.96C285.595 27.2053 286.229 27.4507 286.827 27.696C287.424 27.9307 287.915 28.144 288.299 28.336L287.403 30.56C286.944 30.3147 286.443 30.0747 285.899 29.84C285.355 29.6053 284.8 29.376 284.235 29.152C283.68 28.9173 283.136 28.704 282.603 28.512C282.069 28.32 281.584 28.1547 281.147 28.016V25.712Z" fill="white"/>
<rect x="18" y="19" width="9" height="9" fill="white"/>
<rect x="28" y="19" width="9" height="9" fill="white"/>
<rect x="18" y="29" width="9" height="9" fill="white"/>
<rect x="28" y="29" width="9" height="9" fill="white"/>
</svg>
